<svg version="1" xmlns="http://www.w3.org/2000/svg" width="533.333" height="533.333" viewBox="0 0 400.000000 400.000000"><path d="M184.8.4c-.1.2-3.2.6-6.8 1-3.6.3-7.5.8-8.6 1-1.2.2-3.9.7-6 1-2.2.4-5.7 1.1-7.9 1.7-2.2.6-4.9 1.3-6 1.5-2.3.4-20 6.1-23 7.4-1.1.4-7.6 3.5-14.5 6.8C60.4 45.7 21.3 93.3 6.9 149c-1.6 6.3-3.2 13-3.5 15-.3 1.9-.7 4.2-.9 5-2.6 9.4-2.6 52.5 0 62 .2.8.6 3.3 1 5.5 4 27.3 20.7 63.9 40.4 88.5 7.7 9.6 22.5 24.4 31.6 31.5 29.3 22.9 59.6 35.9 97.7 41.8 11.2 1.8 40.6 1.8 53.1.1 80.9-11.2 146.5-69.1 167.1-147.4 1.4-5.2 2.8-10.9 3.1-12.5.2-1.7.7-4.1 1-5.4 2-10.4 2.8-43.9 1.3-56.6-4.9-39.6-22.1-78.3-47.8-107.6-5.8-6.6-6.3-7.2-15.6-16C308.5 27.5 267 7.5 230.5 2.4c-2.7-.3-5.9-.9-7-1.1-2.3-.6-38.1-1.3-38.7-.9zm34.7 20c2.8.3 6.1.8 7.5 1.1 1.4.3 4.1.7 6 1 9.6 1.6 26 6.3 34.8 10C311.3 51 344 82 363.4 123.1c4.1 8.6 10.9 27.3 12 33.1.2 1.3.9 4.3 1.5 6.8 2.6 11.7 3.5 20.7 3.5 37 0 13-.4 18.5-2 30-2.2 14.9-9.5 36.4-18 53-21.2 41.2-57.7 72.7-101.7 87.9-6.3 2.2-13.1 4.2-15.2 4.5-2 .4-4 .8-4.4 1-.3.2-2.2.7-4.1 1-5.6.9-9.3 1.6-13 2.2-1.9.4-10.2.8-18.5.9-30.3.5-58-5.7-84.8-19.2-42.4-21.2-75-59.1-90.1-104.8-4.1-12.4-4.3-13.4-6.5-26-3-17.2-3.3-43-.7-57.1.2-1.1.7-3.9 1.1-6.4 1.2-7.1 1.2-7.5 3.5-15.5 12.5-44.4 43.3-84.3 82.7-107 13.7-7.9 13.9-8 22.8-11.5 7.4-3 21.2-7.5 26-8.5 11.5-2.4 19.1-3.7 25-4.2 3.9-.3 7.1-.6 7.3-.8.5-.4 24.6.3 29.7.9z"/></svg>